<?xml version="1.0" encoding="UTF-8" standalone="no"?>
<!-- Created with Inkscape (http://www.inkscape.org/) -->

<svg
   width="210mm"
   height="297mm"
   viewBox="0 0 210 297"
   version="1.1"
   id="svg55537"
   inkscape:version="1.1.1 (3bf5ae0d25, 2021-09-20)"
   sodipodi:docname="Logo.svg"
   xmlns:inkscape="http://www.inkscape.org/namespaces/inkscape"
   xmlns:sodipodi="http://sodipodi.sourceforge.net/DTD/sodipodi-0.dtd"
   xmlns="http://www.w3.org/2000/svg"
   xmlns:svg="http://www.w3.org/2000/svg">
  <sodipodi:namedview
     id="namedview55539"
     pagecolor="#505050"
     bordercolor="#eeeeee"
     borderopacity="1"
     inkscape:pageshadow="0"
     inkscape:pageopacity="0"
     inkscape:pagecheckerboard="0"
     inkscape:document-units="mm"
     showgrid="false"
     inkscape:zoom="0.57370932"
     inkscape:cx="397.4138"
     inkscape:cy="561.25984"
     inkscape:window-width="1845"
     inkscape:window-height="1011"
     inkscape:window-x="0"
     inkscape:window-y="32"
     inkscape:window-maximized="1"
     inkscape:current-layer="layer1" />
  <defs
     id="defs55534" />
  <g
     inkscape:label="Layer 1"
     inkscape:groupmode="layer"
     id="layer1">
    <g
       id="g289904"
       inkscape:export-filename="/home/abdisudi/Desktop/ALL.png"
       inkscape:export-xdpi="96"
       inkscape:export-ydpi="96"
       style="display:inline"
       transform="matrix(0.78052013,0,0,0.77726888,-1080.8266,-141.89036)">
      <text
         xml:space="preserve"
         style="font-style:normal;font-weight:normal;font-size:40px;line-height:1.25;font-family:sans-serif;display:inline;fill:#fff8fb;fill-opacity:1;stroke:none"
         x="1626.2438"
         y="308.26117"
         id="text20605"><tspan
           sodipodi:role="line"
           id="tspan20603"
           x="1626.2438"
           y="308.26117"
           style="font-style:normal;font-variant:normal;font-weight:normal;font-stretch:normal;font-family:Deserta;-inkscape-font-specification:Deserta;text-align:center;text-anchor:middle;fill:#fff8fb;fill-opacity:1">Px</tspan></text>
      <g
         id="g20611"
         style="fill:#fff8fb;fill-opacity:1"
         transform="translate(1295.2507,221.18025)">
        <path
           id="path20607"
           style="font-size:40px;line-height:1.25;font-family:Deserta;-inkscape-font-specification:Deserta;text-align:center;text-anchor:middle;white-space:pre;fill:#fff8fb;fill-opacity:1;stroke-width:6.0112"
           d="M 252.74023,78.732422 192.62891,198.95703 h 28.21289 l 4.24609,-7.20898 44.48438,-88.97071 v 72.13477 h -24.39454 l -12.22461,24.04492 h 36.61915 v 27.28125 l 28.85351,-56.75 V 78.732422 Z m 48.85352,96.179688 -32.02148,62.98242 v 5.15039 h 28.85351 v -44.08789 h 19.23438 v -24.04492 z" />
        <path
           id="path20609"
           style="font-size:40px;line-height:1.25;font-family:Deserta;-inkscape-font-specification:Deserta;text-align:center;text-anchor:middle;white-space:pre;fill:#fff8fb;fill-opacity:1;stroke-width:6.0112"
           d="m 157.29102,72.328125 c -34.1436,0 -57.70704,24.044863 -57.70704,50.494145 v 4.80859 h 28.85352 v -4.80859 c 0,-13.22463 12.74351,-24.044926 28.85352,-24.044926 15.86956,0 28.85351,10.820296 28.85351,24.044926 0,32.70087 -79.58756,112.52832 -86.56055,120.22265 H 137.5 l 7.71289,-8.6289 C 175.66528,198.26366 215,157.76609 215,122.82227 215,98.537019 193.11771,72.328125 157.29102,72.328125 Z M 170.99805,219 c -0.56584,0.72751 -3.79462,4.52114 -6.50782,7.7207 l -12.86914,16.32422 h 47.40625 L 211.25195,219 Z M 215,242.86523 l -0.0918,0.17969 H 215 Z" />
      </g>
    </g>
  </g>
</svg>
